<?xml version="1.0" encoding="utf-8"?>
<!-- Generator: Adobe Illustrator 14.0.0, SVG Export Plug-In . SVG Version: 6.00 Build 43363)  -->
<!DOCTYPE svg PUBLIC "-//W3C//DTD SVG 1.1//EN" "http://www.w3.org/Graphics/SVG/1.1/DTD/svg11.dtd">
<svg version="1.1" id="レイヤー_1" xmlns="http://www.w3.org/2000/svg" xmlns:xlink="http://www.w3.org/1999/xlink" x="0px"
	 y="0px" width="128px" height="128px" viewBox="0 0 128 128" enable-background="new 0 0 128 128" xml:space="preserve">
<g>
	<path fill="#71C7D1" d="M127.54,98.006l-11.396-14.332V23.403c0-2.916-2.364-5.28-5.28-5.28H17.139c-2.918,0-5.28,2.364-5.28,5.28
		v60.271L0.46,98.006C0.164,98.379,0,98.842,0,99.321v6.344c0,2.327,1.887,4.212,4.215,4.212h119.573
		c2.325,0,4.212-1.885,4.212-4.212v-6.344C128,98.842,127.838,98.379,127.54,98.006z M19.309,25.573h89.385v50.651H19.309V25.573z
		 M76.03,104.867H51.969v-6.369H76.03V104.867z"/>
	<path fill="#71C7D1" d="M97.28,44.071c-0.098-0.502-0.525-0.869-1.035-0.887l-4.161-0.164c-0.674-1.5-1.58-2.853-2.669-4.022
		l1.472-3.896c0.18-0.478,0.002-1.014-0.417-1.299l-2.2-1.48c-0.419-0.283-0.985-0.245-1.359,0.105l-3.054,2.829
		c-1.493-0.572-3.089-0.903-4.735-0.959L77.407,30.5c-0.212-0.462-0.716-0.722-1.21-0.624l-2.604,0.51
		c-0.499,0.097-0.866,0.525-0.886,1.033l-0.162,4.162c-1.502,0.672-2.857,1.58-4.024,2.669l-3.897-1.472
		c-0.477-0.18-1.016-0.002-1.296,0.415l-1.482,2.2c-0.281,0.421-0.244,0.985,0.104,1.361l2.829,3.057
		c-0.568,1.491-0.899,3.088-0.958,4.732l-3.795,1.714c-0.465,0.212-0.722,0.714-0.625,1.211l0.508,2.604
		c0.098,0.501,0.525,0.864,1.033,0.886l4.165,0.162c0.67,1.502,1.578,2.855,2.672,4.022l-1.473,3.898
		c-0.179,0.478-0.009,1.014,0.413,1.299l2.198,1.479c0.424,0.283,0.986,0.246,1.359-0.104l3.059-2.827
		c1.493,0.568,3.09,0.899,4.73,0.955l1.719,3.798c0.209,0.463,0.711,0.722,1.21,0.625l2.604-0.508
		c0.497-0.098,0.864-0.525,0.886-1.033l0.162-4.165c1.498-0.671,2.853-1.578,4.022-2.67l3.896,1.473
		c0.478,0.182,1.016,0.004,1.299-0.417l1.48-2.196c0.283-0.422,0.242-0.985-0.104-1.363l-2.829-3.057
		c0.571-1.491,0.899-3.088,0.958-4.73l3.797-1.716c0.463-0.212,0.722-0.712,0.625-1.211L97.28,44.071z M80.062,56.576
		c-4.144,0.811-8.163-1.896-8.97-6.039c-0.812-4.143,1.894-8.16,6.037-8.971c4.143-0.809,8.16,1.896,8.974,6.038
		C86.908,51.748,84.204,55.768,80.062,56.576z"/>
	<path fill="#71C7D1" d="M60.029,56.98l-2.95-0.956c-0.182-1.212-0.556-2.366-1.101-3.423l1.84-2.496
		c0.225-0.308,0.207-0.725-0.037-1.014l-1.277-1.509c-0.244-0.283-0.655-0.369-0.996-0.194L52.746,48.8
		c-0.956-0.711-2.032-1.267-3.195-1.645l-0.469-3.064c-0.057-0.376-0.363-0.664-0.739-0.694l-1.971-0.162
		c-0.374-0.03-0.726,0.201-0.843,0.566l-0.956,2.948c-1.212,0.182-2.367,0.556-3.421,1.1l-2.498-1.839
		c-0.308-0.227-0.727-0.208-1.014,0.039l-1.507,1.275c-0.285,0.246-0.369,0.654-0.196,0.996l1.409,2.762
		c-0.707,0.953-1.267,2.034-1.641,3.196l-3.067,0.467c-0.376,0.057-0.661,0.365-0.691,0.739l-0.162,1.971
		c-0.032,0.376,0.201,0.725,0.56,0.844l2.955,0.955c0.179,1.212,0.556,2.366,1.1,3.421l-1.839,2.499
		c-0.225,0.307-0.207,0.726,0.037,1.016l1.275,1.504c0.246,0.288,0.657,0.372,0.999,0.199l2.76-1.409
		c0.953,0.704,2.034,1.267,3.196,1.638l0.467,3.067c0.059,0.376,0.365,0.663,0.739,0.693l1.973,0.16
		c0.374,0.032,0.724-0.201,0.84-0.56l0.956-2.955c1.212-0.177,2.369-0.553,3.423-1.098l2.496,1.84
		c0.308,0.225,0.727,0.205,1.014-0.035l1.509-1.279c0.285-0.242,0.369-0.655,0.199-0.994l-1.414-2.764
		c0.709-0.955,1.269-2.032,1.641-3.197l3.067-0.467c0.378-0.059,0.664-0.365,0.694-0.739l0.162-1.971
		C60.623,57.447,60.392,57.099,60.029,56.98z M45.671,63.982c-3.501-0.285-6.11-3.36-5.827-6.861
		c0.288-3.504,3.361-6.11,6.862-5.827c3.503,0.287,6.112,3.36,5.824,6.862C52.246,61.661,49.173,64.268,45.671,63.982z"/>
</g>
</svg>
