<?xml version="1.0" encoding="utf-8"?>
<!-- Generator: Adobe Illustrator 14.0.0, SVG Export Plug-In . SVG Version: 6.00 Build 43363)  -->
<!DOCTYPE svg PUBLIC "-//W3C//DTD SVG 1.1//EN" "http://www.w3.org/Graphics/SVG/1.1/DTD/svg11.dtd">
<svg version="1.1" id="レイヤー_1" xmlns="http://www.w3.org/2000/svg" xmlns:xlink="http://www.w3.org/1999/xlink" x="0px"
	 y="0px" width="128px" height="128px" viewBox="0 0 128 128" enable-background="new 0 0 128 128" xml:space="preserve">
<g>
	<path fill="#71C7D1" d="M13.999,28.585c-1.383-1.383-3.625-1.383-5.008,0l-7.954,7.954c-1.383,1.387-1.383,3.629,0,5.012
		l5.152,5.156l12.965-12.966L13.999,28.585z"/>
	<polygon fill="#71C7D1" points="71.608,99.157 67.187,81.766 54.222,94.734 	"/>
	<path fill="#71C7D1" d="M64.534,79.117l-43.02-43.02L8.549,49.066l43.02,43.02L64.534,79.117z M21.866,41.641l37.481,37.484
		l-2.945,2.938L18.92,44.586L21.866,41.641z"/>
	<rect x="48.913" y="33.12" fill="#71C7D1" width="7.34" height="7.005"/>
	<rect x="48.913" y="50.172" fill="#71C7D1" width="7.34" height="7.004"/>
	<rect x="64.171" y="33.12" fill="#71C7D1" width="43.267" height="7.005"/>
	<rect x="64.171" y="50.172" fill="#71C7D1" width="43.267" height="7.004"/>
	<rect x="72.147" y="67.223" fill="#71C7D1" width="35.29" height="7.004"/>
	<path fill="#71C7D1" d="M107.453,2.765h-58.56c-11.329,0-20.543,9.215-20.543,20.543v8.184l7.605,7.61V23.308
		c0-7.145,5.793-12.938,12.938-12.938h58.56c7.148,0,12.938,5.793,12.938,12.938V86.82h-20.023c-5.953,0-10.781,4.828-10.781,10.781
		v20.024H48.894c-7.145,0-12.938-5.789-12.938-12.938v-9.267l-1.559-0.398l1.559-1.555v-5.547l-7.605-7.609v24.376
		c0,11.328,9.215,20.547,20.543,20.547h40.692h3.148l2.234-2.227l30.805-30.806L128,89.969V86.82V23.308
		C128,11.979,118.781,2.765,107.453,2.765z"/>
</g>
</svg>
