<?xml version="1.0" encoding="utf-8"?>
<!-- Generator: Adobe Illustrator 14.0.0, SVG Export Plug-In . SVG Version: 6.00 Build 43363)  -->
<!DOCTYPE svg PUBLIC "-//W3C//DTD SVG 1.1//EN" "http://www.w3.org/Graphics/SVG/1.1/DTD/svg11.dtd">
<svg version="1.1" id="レイヤー_1" xmlns="http://www.w3.org/2000/svg" xmlns:xlink="http://www.w3.org/1999/xlink" x="0px"
	 y="0px" width="128px" height="128px" viewBox="0 0 128 128" enable-background="new 0 0 128 128" xml:space="preserve">
<g>
	<path fill="#71C7D1" d="M18,0v128h92V0H18z M60.008,114.996h-28v-28h28V114.996z M60.008,78.996h-28v-28h28V78.996z
		 M96.008,114.996h-28v-28h28V114.996z M96.008,78.996h-28v-28h28V78.996z M96.008,37.996h-64v-24h64V37.996z"/>
	<rect x="74.008" y="62.996" fill="#71C7D1" width="16" height="4"/>
	<polygon fill="#71C7D1" points="44.008,72.996 48.008,72.996 48.008,66.996 54.008,66.996 54.008,62.996 48.008,62.996 
		48.008,56.996 44.008,56.996 44.008,62.996 38.008,62.996 38.008,66.996 44.008,66.996 	"/>
	<polygon fill="#71C7D1" points="40.852,108.734 46.008,103.57 51.164,108.734 53.742,106.148 48.586,100.992 53.742,95.836 
		51.164,93.258 46.008,98.414 40.852,93.258 38.273,95.836 43.43,100.992 38.273,106.148 	"/>
	<rect x="74.008" y="93.996" fill="#71C7D1" width="16" height="4"/>
	<rect x="74.008" y="103.996" fill="#71C7D1" width="16" height="4"/>
	<polygon fill="#71C7D1" points="80.105,31.148 80.625,27.422 79.738,26.367 78.594,27.367 78.074,31.102 78.965,32.133 	"/>
	<polygon fill="#71C7D1" points="80.984,24.785 81.488,21.07 80.598,20.039 79.457,21.023 78.949,24.766 79.844,25.805 	"/>
	<polygon fill="#71C7D1" points="80.809,31.594 79.668,32.602 80.578,33.629 84.43,33.629 85.57,32.641 84.664,31.594 	"/>
	<polygon fill="#71C7D1" points="86.051,20.578 87.188,19.57 86.281,18.543 82.426,18.543 81.285,19.531 82.191,20.578 	"/>
	<polygon fill="#71C7D1" points="85.871,27.387 85.367,31.102 86.258,32.133 87.402,31.148 87.906,27.406 87.016,26.367 	"/>
	<polygon fill="#71C7D1" points="86.23,24.75 87.121,25.805 88.262,24.805 88.781,21.07 87.891,20.039 86.75,21.023 	"/>
</g>
</svg>
