<?xml version="1.0" encoding="utf-8"?>
<!-- Generator: Adobe Illustrator 14.0.0, SVG Export Plug-In . SVG Version: 6.00 Build 43363)  -->
<!DOCTYPE svg PUBLIC "-//W3C//DTD SVG 1.1//EN" "http://www.w3.org/Graphics/SVG/1.1/DTD/svg11.dtd">
<svg version="1.1" id="レイヤー_1" xmlns="http://www.w3.org/2000/svg" xmlns:xlink="http://www.w3.org/1999/xlink" x="0px"
	 y="0px" width="64px" height="64px" viewBox="0 0 64 64" enable-background="new 0 0 64 64" xml:space="preserve">
<polygon fill="#EA1A6B" points="0,64 0,0 64,0 "/>
<g>
	<path fill="#FFFFFF" d="M7.504,29.567l0.48,1.132l-1.272,1.272L5,27.94l1.272-1.273l0.553,1.287l8.034-8.035l1.146,1.146
		l-0.75,0.75l1.953,1.953l1.611-1.613l1.146,1.146l-1.613,1.611l1.953,1.954l1.314-1.316l1.146,1.146l-10.27,10.271l-1.146-1.146
		l1.43-1.428l-1.953-1.954l-1.725,1.728L7.956,33.02l1.727-1.726l-1.953-1.953L7.504,29.567z M14.973,40.064l-0.919-2.928
		l1.386-1.387l0.919,2.928L14.973,40.064z M8.876,28.195l1.952,1.953l0.976-0.977l-1.951-1.952L8.876,28.195z M11.974,31.293
		l1.952,1.953l0.976-0.978l-1.951-1.951L11.974,31.293z M16.288,34.59l1.245-1.246l2.22,1.91l-1.23,1.23L16.288,34.59z
		 M12.95,28.026l0.99-0.99l-1.953-1.954l-0.99,0.991L12.95,28.026z M15.085,28.18l-0.99,0.991l1.953,1.953l0.99-0.99L15.085,28.18z
		 M19.018,31.859l1.302-1.302l2.772,1.357l-1.302,1.302L19.018,31.859z M16.062,24.912l-1.951-1.951l-0.99,0.99l1.951,1.952
		L16.062,24.912z M19.159,28.01l-1.951-1.951l-0.99,0.99L18.169,29L19.159,28.01z M23.191,27.997l3,0.85l-1.4,1.401l-3.015-0.836
		L23.191,27.997z"/>
	<path fill="#FFFFFF" d="M21.079,11.832l4.032,4.031l1.91-1.91l1.16,1.16l-1.033,1.033l2.49,1.018l-1.26,1.26l-1.188-0.481
		l4.852,4.852l-1.16,1.159l-4.582-4.583l1.811,3.424l-1.217,1.217l-2.645-4.966l-1.047,1.047l-1.161-1.159l1.911-1.91l-4.032-4.031
		L21.079,11.832z M22.862,16.556l-1.104,1.104l-2.616-1.655l1.131-1.131l2.603,1.641L22.862,16.556z M23.994,11.152l1.768,2.504
		l-1.117,1.117l-1.782-2.489L23.994,11.152z M35,10.276l1.201,1.202l-0.693,1.117l3.367,3.366l-1.174,1.174l-3.098-3.098
		l-2.461,3.961l-1.217-1.217l2.475-3.946l-6.662-6.662L27.912,5l6.395,6.394L35,10.276z M31.393,12.327l-1.373,1.372l-2.715-0.595
		l1.357-1.358L31.393,12.327z M28.846,8.988l-1.33,1.33l-2.758-0.666l1.344-1.344L28.846,8.988z"/>
</g>
</svg>
