<?xml version="1.0" encoding="utf-8"?>
<!-- Generator: Adobe Illustrator 14.0.0, SVG Export Plug-In . SVG Version: 6.00 Build 43363)  -->
<!DOCTYPE svg PUBLIC "-//W3C//DTD SVG 1.1//EN" "http://www.w3.org/Graphics/SVG/1.1/DTD/svg11.dtd">
<svg version="1.1" id="レイヤー_1" xmlns="http://www.w3.org/2000/svg" xmlns:xlink="http://www.w3.org/1999/xlink" x="0px"
	 y="0px" width="128px" height="128px" viewBox="0 0 128 128" enable-background="new 0 0 128 128" xml:space="preserve">
<g>
	<path fill="#71C7D1" d="M125.331,56.07c-0.275-1.544-0.728-3.044-1.318-4.497c-1.024-2.5-2.503-4.794-4.362-6.815l-0.07-0.069
		L105.27,30.922l-0.275-0.251l-24.33-23.4l-0.137-0.138C76.231,2.589,70.259,0,63.989,0c-6.248,0-12.247,2.589-16.521,7.133
		l-0.133,0.137l-24.334,23.4l-0.271,0.251L8.416,44.688L8.35,44.758c-1.864,2.021-3.342,4.315-4.362,6.815
		c-0.59,1.454-1.047,2.953-1.318,4.498c-0.253,1.365-0.386,2.749-0.386,4.158v45.03c0,4.635,1.385,8.95,3.772,12.564
		c0.838,1.271,1.815,2.452,2.907,3.543c4.091,4.089,9.744,6.634,16.04,6.634h77.996c6.27,0,11.928-2.545,16.036-6.634
		c1.092-1.092,2.046-2.272,2.889-3.543c2.405-3.614,3.794-7.93,3.794-12.564v-45.03C125.717,58.819,125.58,57.435,125.331,56.07z
		 M105.27,40.371l9.381,9.021l0.022,0.022c1.499,1.635,2.636,3.543,3.341,5.611l-12.744,7.406V40.371L105.27,40.371z M32.839,30.671
		l19.427-18.674l0.066-0.091c3-3.25,7.224-5.089,11.657-5.089c4.429,0,8.652,1.839,11.675,5.089l0.07,0.066l0.066,0.069
		l19.379,18.63l0.004,0.005h-62.35L32.839,30.671z M27.265,36.016l0.009-0.007l0.834-0.79h71.801l0.816,0.79v29.036L63.989,86.355
		L27.274,65.067l-0.009-0.005V36.016L27.265,36.016z M13.323,49.415l0.022-0.022l9.376-9.015v22.049l-12.74-7.402
		C10.665,52.958,11.801,51.05,13.323,49.415z M9.099,105.259v-45.03c0-0.136,0-0.295,0.022-0.431l34.394,19.971l-32.53,33.033
		C9.778,110.553,9.099,107.985,9.099,105.259z M114.242,116.505c-2.885,2.884-6.86,4.68-11.244,4.68H25.002
		c-4.41,0-8.359-1.796-11.248-4.68l-0.022-0.024l33.853-34.374l16.405,9.521l16.423-9.521l33.852,34.374L114.242,116.505z
		 M118.901,105.259c0,2.749-0.684,5.315-1.908,7.565L84.459,79.769l34.42-19.971c0.022,0.136,0.022,0.295,0.022,0.431V105.259
		L118.901,105.259z"/>
	<rect x="42.033" y="50.031" fill="#71C7D1" width="43.925" height="4.307"/>
	<rect x="42.033" y="60.632" fill="#71C7D1" width="26.509" height="4.307"/>
</g>
</svg>
