<?xml version="1.0" encoding="utf-8"?>
<!-- Generator: Adobe Illustrator 14.0.0, SVG Export Plug-In . SVG Version: 6.00 Build 43363)  -->
<!DOCTYPE svg PUBLIC "-//W3C//DTD SVG 1.1//EN" "http://www.w3.org/Graphics/SVG/1.1/DTD/svg11.dtd">
<svg version="1.1" id="レイヤー_1" xmlns="http://www.w3.org/2000/svg" xmlns:xlink="http://www.w3.org/1999/xlink" x="0px"
	 y="0px" width="248px" height="77px" viewBox="0 0 248 77" enable-background="new 0 0 248 77" xml:space="preserve">
<g>
	<g>
		<g>
			<g>
				<g>
					<path d="M24.791,11.092c-2.707-1.163-5.729-1.845-8.743-1.845c-2.963,0-6.774,1.296-6.774,5.972
						c0,7.462,18.854,4.315,18.854,18.736c0,9.423-7.456,13.001-16.147,13.001c-4.683,0-6.782-0.614-11.033-1.668l0.805-7.755
						c2.963,1.594,6.351,2.641,9.738,2.641c3.263,0,7.638-1.661,7.638-5.539c0-8.193-18.854-4.807-18.854-19.044
						c0-9.606,7.455-13.126,15.027-13.126c3.702,0,7.155,0.498,10.294,1.545L24.791,11.092z"/>
				</g>
			</g>
			<g>
				<g>
					<path d="M36.614,16.147c3.204-1.478,7.521-2.408,11.033-2.408c9.672,0,13.681,4.011,13.681,13.375v4.067
						c0,3.205,0.066,5.612,0.117,7.945c0.059,2.408,0.19,4.625,0.373,7.09h-7.272c-0.307-1.66-0.307-3.753-0.373-4.741h-0.117
						c-1.917,3.513-6.043,5.48-9.796,5.48c-5.611,0-11.099-3.387-11.099-9.423c0-4.748,2.282-7.521,5.429-9.058
						c3.146-1.544,7.214-1.852,10.659-1.852h4.559c0-5.113-2.275-6.834-7.148-6.834c-3.512,0-7.016,1.347-9.796,3.447L36.614,16.147
						z M46.294,40.92c2.523,0,4.491-1.111,5.787-2.838c1.354-1.793,1.727-4.061,1.727-6.534h-3.578
						c-3.694,0-9.182,0.614-9.182,5.487C41.048,39.742,43.338,40.92,46.294,40.92z"/>
				</g>
			</g>
			<g>
				<g>
					<path d="M69.45,14.486h7.82v4.316h0.124c2.591-3.643,6.103-5.063,10.419-5.063c7.514,0,10.784,5.305,10.784,12.453v20.024
						h-8.26V29.266c0-3.871-0.066-9.109-5.363-9.109c-5.978,0-7.265,6.468-7.265,10.528v15.532h-8.26V14.486z"/>
				</g>
			</g>
			<g>
				<g>
					<path d="M107.268,0h8.268v27.18h0.109l9.87-12.693h9.723l-11.815,14.172l13.3,17.559h-10.469l-10.608-15.401h-0.109v15.401
						h-8.268V0z"/>
				</g>
			</g>
			<g>
				<g>
					<path d="M155.884,13.739c9.416,0,16.623,6.352,16.623,16.828c0,9.116-6.096,16.389-16.623,16.389
						c-10.477,0-16.578-7.272-16.578-16.389C139.306,20.091,146.511,13.739,155.884,13.739z M155.884,40.547
						c6.336,0,8.004-5.671,8.004-10.968c0-4.864-2.59-9.423-8.004-9.423c-5.371,0-7.953,4.675-7.953,9.423
						C147.931,34.826,149.591,40.547,155.884,40.547z"/>
				</g>
			</g>
			<g>
				<g>
					<path d="M205.282,11.092c-2.707-1.163-5.729-1.845-8.75-1.845c-2.955,0-6.773,1.296-6.773,5.972
						c0,7.462,18.854,4.315,18.854,18.736c0,9.423-7.455,13.001-16.148,13.001c-4.674,0-6.773-0.614-11.025-1.668l0.799-7.755
						c2.955,1.594,6.344,2.641,9.738,2.641c3.27,0,7.637-1.661,7.637-5.539c0-8.193-18.854-4.807-18.854-19.044
						c0-9.606,7.463-13.126,15.035-13.126c3.695,0,7.148,0.498,10.287,1.545L205.282,11.092z"/>
				</g>
			</g>
			<g>
				<g>
					<path d="M247.726,45.603c-3.139,0.739-6.527,1.354-9.797,1.354c-13.924,0-23.596-6.958-23.596-21.502
						c0-14.729,8.992-22.989,23.596-22.989c2.838,0,6.592,0.557,9.738,1.793l-0.615,7.266c-3.27-1.836-6.227-2.276-9.307-2.276
						c-8.875,0-14.42,6.775-14.42,15.584c0,8.758,5.422,15.343,14.604,15.343c3.395,0,7.389-0.739,9.43-1.778L247.726,45.603z"/>
				</g>
			</g>
		</g>
	</g>
</g>
<g>
	<path d="M6.675,67.924c0,0.245,0.019,0.377,0.037,0.509c-0.563,0.26-0.713,0.337-2.136,0.915v5.289c0,1.5-0.095,2.286-3.263,2.173
		c-0.019-0.541-0.15-1.142-0.45-1.632c0.486,0.077,0.768,0.114,1.163,0.114C3,75.292,3,75.163,3,74.187v-4.255
		c-0.318,0.11-1.313,0.487-2.1,0.732c-0.073,0.3-0.113,0.522-0.336,0.522c-0.208,0-0.245-0.186-0.282-0.376L0,69.311
		c1.013-0.278,2.213-0.618,3-0.9V64.27H0.171v-1.426H3v-3.337l1.686,0.113c0.168,0.018,0.377,0.073,0.377,0.281
		c0,0.187-0.187,0.301-0.486,0.374v2.568h2.173v1.426H4.576v3.6c0.168-0.059,1.086-0.395,2.173-0.845
		C6.712,67.247,6.675,67.664,6.675,67.924z M16.611,76.887c-1.932-0.641-3.787-1.781-4.968-2.831
		c-1.35,1.122-2.963,2.176-4.95,2.944c-0.282-0.563-0.544-0.922-0.995-1.368c0.75-0.228,2.495-0.753,4.913-2.608
		c-0.3-0.337-1.518-1.704-2.4-3.486l1.258-0.805c0.355,0.731,0.973,1.968,2.246,3.3c1.182-1.185,2.101-2.477,2.645-3.977H7.685
		v-1.387h3.413V64.08H7.462v-1.424h3.636V59.58l1.672,0.113c0.091,0,0.336,0.019,0.336,0.208c0,0.205-0.208,0.264-0.468,0.355v2.399
		h4.667v1.424h-4.667v2.589h2.959l0.695,0.637c-0.695,2.137-2.1,4.259-3.508,5.699c0.677,0.563,2.327,1.801,4.84,2.514
		C16.893,76.231,16.725,76.623,16.611,76.887z"/>
	<path d="M35.396,66.274v8.513c0,2.045-1.351,2.06-2.682,2.06c-0.468,0-0.563,0-0.787-0.037c-0.019-0.637-0.168-1.031-0.509-1.609
		c0.322,0.055,0.791,0.132,1.445,0.132c0.94,0,1.032-0.154,1.032-0.731v-8.326h-2.66v-1.273h-2.385v11.831h-1.46V65.001h-2.699
		v-0.526c-0.056,0.019-0.077,0.019-0.15,0c-0.205,0.449-0.505,1.105-1.222,2.118c0.322,0.095,0.472,0.187,0.472,0.3
		c0,0.187-0.15,0.245-0.431,0.34v9.541h-1.519v-8.305c-0.75,0.864-1.09,1.219-1.463,1.61c-0.45-0.468-0.695-0.637-1.273-0.938
		c1.873-1.44,3.432-3.749,4.423-5.735l0.977,0.486c0.073,0.04,0.11,0.077,0.187,0.113V63.61h2.699v-4.045l1.386,0.072
		c0.374,0.019,0.469,0.096,0.469,0.242c0,0.19-0.132,0.227-0.395,0.322v3.408h2.699v1.277h5.44v1.387H35.396z M24.616,60.875
		c-0.096,0-0.224,0-0.374-0.037c-0.995,1.2-2.458,2.455-3.75,3.396c-0.377-0.527-0.654-0.791-1.145-1.068
		c1.482-0.863,2.759-1.877,4.127-3.545l1.123,0.786c0.095,0.059,0.223,0.187,0.223,0.282C24.82,60.78,24.747,60.875,24.616,60.875z
		 M26.565,67.548c-0.205,2.626-0.636,4.353-1.16,5.962c-0.468-0.278-0.753-0.354-1.332-0.409c0.787-2.253,1.086-3.863,1.2-6.244
		l1.292,0.149c0.3,0.037,0.472,0.149,0.472,0.282C27.037,67.475,26.751,67.533,26.565,67.548z M30.11,63.143
		c-0.227-0.973-0.45-1.723-0.827-2.55l1.091-0.486c0.6,1.387,0.672,1.559,0.954,2.55C30.878,62.771,30.596,62.901,30.11,63.143z
		 M30.596,73.137c-0.168-2.495-0.486-4.236-0.991-6.112l1.273-0.245c0.658,2.399,0.958,4.239,1.031,5.926
		C31.441,72.778,31.01,72.932,30.596,73.137z M31.76,62.094v-1.388h4.876v1.388H31.76z"/>
	<path d="M48.276,59.712c0.205,0.021,0.468,0.077,0.468,0.245c0,0.186-0.15,0.245-0.563,0.391c-0.019,0.473-0.037,2.327-0.055,3.19
		h7.459c0,2.326,0,9.804-1.423,11.866c-0.468,0.674-1.218,1.388-4.236,1.259c-0.223-1.108-0.563-1.595-0.713-1.84
		c0.318,0.056,1.104,0.209,1.913,0.209c1.277,0,1.837-0.227,2.268-2.29c0.282-1.368,0.6-4.068,0.563-7.723h-5.85
		c-0.149,7.422-4.745,10.554-7.276,11.772c-0.392-0.561-0.637-0.787-1.218-1.273c6.749-2.908,6.88-8.812,6.917-10.499h-6.373v-1.481
		h6.373v-3.937L48.276,59.712z"/>
	<path d="M70.642,64.006c-0.995,0.673-3.973,2.927-3.973,6.059c0,2.399,1.814,4.328,5.809,4.741
		c-0.336,0.657-0.505,1.086-0.709,1.763c-3.432-0.694-6.753-2.568-6.753-6.489c0-2.455,1.445-5.078,5.122-7.272
		c-0.468,0.019-8.607,0.899-10.126,1.273l-0.263-2.023c0.358,0.019,0.6,0.037,0.958,0.037c1.086,0,9.708-0.545,14.771-1.65
		l0.373,1.858C75.046,62.302,73.173,62.28,70.642,64.006z M73.492,68.543c-0.3-0.432-0.845-1.237-1.687-2.101l0.899-0.695
		c0.055,0.06,1.105,1.127,1.705,2.046C73.959,68.056,73.583,68.433,73.492,68.543z M75.346,67.174
		c-0.655-1.068-1.273-1.704-1.686-2.136l0.9-0.637c0.544,0.505,1.331,1.441,1.745,2.041C76.06,66.574,75.851,66.669,75.346,67.174z"
		/>
	<path d="M88.79,65.302l1.219,0.108c0.149,0.022,0.354,0.078,0.354,0.264c0,0.19-0.113,0.245-0.486,0.414v1.5h5.004v9.204h-1.478
		v-0.918h-8.458v0.918h-1.537v-9.204h4.968v-2.286h-6.562c0,4.59-0.055,7.703-1.986,11.34c-0.509-0.41-0.846-0.601-1.409-0.786
		c1.84-3.077,1.84-5.982,1.84-9.845v-5.735h14.776v5.026H88.79z M93.476,61.624H81.814v2.323h11.662V61.624z M88.376,68.843h-3.431
		v2.231h3.431V68.843z M88.376,72.273h-3.431v2.29h3.431V72.273z M93.403,68.843h-3.526v2.231h3.526V68.843z M93.403,72.273h-3.526
		v2.29h3.526V72.273z"/>
	<path d="M102.702,75.519l-1.295,0.337c-1.427-2.909-1.521-6.677-1.521-8.177c0-3.56,0.6-6.259,0.863-7.422l1.745,0.449
		c0.209,0.06,0.3,0.096,0.3,0.242c0,0.227-0.282,0.264-0.414,0.264c-0.918,3.036-0.918,6.094-0.918,6.826
		c0,0.973,0.055,2.849,0.545,4.536c0.955-2.605,1.068-2.905,1.5-3.827c0.618,0.509,0.937,0.64,1.236,0.754
		C103.825,71.146,102.757,74.092,102.702,75.519z M112.056,66.011c0,2.231,0,4.145-0.377,5.662
		c-0.263,1.069-1.141,3.191-3.731,5.027c-0.41-0.6-1.032-0.995-1.332-1.163c3.9-2.418,3.9-4.949,3.863-9.281
		c-1.141,0.132-3.318,0.264-5.041,0.209l-0.131-1.672c0.636,0.076,0.954,0.113,1.741,0.113c0.753,0,2.008-0.037,3.395-0.187
		c-0.018-0.486-0.132-3.227-0.358-4.745l1.745,0.168c0.34,0.037,0.526,0.06,0.526,0.228c0,0.187-0.263,0.277-0.376,0.318
		c0,0.354,0.022,2.1,0.058,3.786c1.405-0.282,2.118-0.469,3.168-0.899c-0.022,0.673,0,1.049,0.037,1.631
		C114.792,65.374,113.984,65.674,112.056,66.011z"/>
	<path d="M127.035,76.269c-2.175,0-4.144-0.977-4.144-2.927c0-1.35,1.068-2.509,2.923-2.509c1.199,0,2.457,0.504,3.227,1.536
		c0.486,0.654,0.6,1.255,0.693,1.836c0.543-0.227,2.492-1.05,2.492-3.372c0-2.086-1.555-3.468-4.031-3.468
		c-3.259,0-5.228,1.835-8.227,4.967l-1.295-1.258c1.668-1.164,8.55-7.932,9.3-8.904c-1.836,0.41-5.082,0.709-7.049,0.823
		l-0.282-1.668c1.931,0.095,7.067-0.205,9.579-1.068l0.883,1.107c-0.432,0.355-5.268,4.814-5.682,5.268
		c0.674-0.263,1.67-0.657,3.168-0.657c2.756,0,5.25,1.649,5.25,4.704C133.84,74.619,129.846,76.269,127.035,76.269z M127.637,73.042
		c-0.396-0.45-1.127-0.863-1.934-0.863c-0.395,0-1.352,0.132-1.352,1.163c0,1.295,1.631,1.631,2.477,1.631
		c0.639,0,1.182-0.131,1.48-0.186C128.25,74.264,128.195,73.643,127.637,73.042z"/>
	<path d="M142.293,76.21c-1.404-1.873-2.848-2.941-3.805-3.618l1.051-1.086c1.801,1.141,3.223,2.494,4.068,3.336L142.293,76.21z"/>
	<path d="M165.549,68.038l0.354,0.094c0.152,0.037,0.32,0.11,0.32,0.241c0,0.206-0.229,0.264-0.543,0.301
		c-0.244,0.563-0.977,2.213-2.217,3.545c0.527,0.26,2.818,1.368,5.422,3.3c-0.562,0.373-0.844,0.673-1.182,1.236
		c-1.199-0.955-2.98-2.286-5.363-3.449c-3.018,2.55-7.031,3.167-8.381,3.372c-0.035-0.241-0.094-0.637-0.695-1.535
		c3.564-0.242,6.096-1.424,7.596-2.532c-0.432-0.188-2.119-0.919-3.564-1.31c-0.223,0.336-0.408,0.578-0.746,1.068
		c-0.432-0.264-0.826-0.451-1.539-0.622c1.164-1.383,2.195-3.11,2.57-3.709h-4.916v-1.369h5.686
		c0.299-0.526,1.178-2.176,1.688-3.504l1.48,0.6c0.186,0.074,0.336,0.183,0.336,0.337c0,0.205-0.244,0.205-0.545,0.205
		c-0.205,0.372-1.012,2.041-1.182,2.362h9.621v1.369H165.549z M167.291,65.188v-2.154h-12.168v2.154h-1.574v-3.563h6.787v-2.059
		l1.668,0.091c0.188,0.019,0.449,0.056,0.449,0.245c0,0.147-0.148,0.264-0.504,0.318v1.404h6.898v3.563H167.291z M159.381,68.038
		c-0.545,0.917-0.922,1.518-1.316,2.099c1.371,0.374,3.209,1.127,3.959,1.442c1.33-1.405,1.912-2.81,2.193-3.541H159.381z"/>
	<path d="M176.307,66.969c-0.918,3.264-2.191,5.342-2.754,6.132c-0.281-0.169-0.713-0.414-1.65-0.622
		c0.545-0.746,2.25-3.092,3-6.522l1.518,0.392c0.188,0.058,0.396,0.153,0.396,0.34C176.816,66.838,176.721,66.874,176.307,66.969z
		 M183.188,76.323h-2.717c-2.381,0-2.381-1.5-2.381-2.231v-9.599l1.611,0.112c0.26,0.019,0.469,0.133,0.469,0.264
		c0,0.206-0.299,0.264-0.469,0.3v8.663c0,0.805,0.188,1.01,1.387,1.01h2.006c1.125,0,1.781,0,2.268-2.718
		c0.641,0.544,1.107,0.695,1.463,0.786C186.037,76.323,184.705,76.323,183.188,76.323z M183.525,63.82
		c-2.342-1.632-4.031-2.346-5.379-2.887l0.783-1.354c2.609,1.053,4.785,2.385,5.531,2.89
		C184.088,62.879,183.77,63.369,183.525,63.82z M188.191,71.71c-0.186-0.468-1.162-2.831-3.953-6.091l1.291-0.808
		c1.801,1.895,3.527,4.558,4.199,6.112C188.773,71.337,188.42,71.564,188.191,71.71z"/>
	<path d="M199.873,67.624c-0.992,0.487-4.291,2.081-4.291,4.294c0,2.475,4.291,2.475,5.545,2.475c0.395,0,3.695-0.019,6.264-0.9
		c-0.074,0.318-0.168,0.713-0.131,1.877c-1.855,0.354-4.273,0.562-6.02,0.562c-3.186,0-4.553-0.509-5.436-0.959
		c-1.145-0.58-1.932-1.741-1.932-3.036c0-2.399,2.141-3.898,4.199-5.044c-1.012-1.067-1.217-2.359-1.422-4.572
		c-0.096-0.919-0.133-1.5-0.377-2.118l2.154-0.454c-0.055,0.772-0.092,1.277-0.092,1.785c0,1.76,0.188,3.56,1.068,4.668
		c0.846-0.413,2.006-0.937,3.264-1.408c1.367-0.523,3.768-1.459,4.086-1.592l0.713,1.837
		C204.205,65.602,200.85,67.155,199.873,67.624z"/>
	<path d="M215.357,76.736h-1.518v-9.672c-0.75,1.423-1.105,1.946-1.445,2.437c-0.355-0.432-0.859-0.864-1.199-1.032
		c2.195-2.926,3.508-6.92,4.012-8.962l1.465,0.527c0.203,0.072,0.318,0.146,0.318,0.313c0,0.173-0.133,0.245-0.451,0.285
		c-0.223,0.601-1.199,3.223-1.424,3.746c0.469,0.059,0.674,0.114,0.674,0.285c0,0.129-0.205,0.224-0.432,0.301V76.736z
		 M223.533,63.312h4.236v6.825h-4.35c-0.072,0.542-0.244,1.855-0.955,3.15c2.137,1.481,4.891,1.855,6.318,2.045
		c-0.395,0.56-0.527,0.878-0.695,1.478c-2.455-0.445-4.668-1.123-6.486-2.417c-0.73,0.676-2.154,1.799-4.668,2.381
		c-0.168-0.45-0.449-0.937-0.809-1.351c1.67-0.223,3.377-1.014,4.332-1.968c-0.691-0.654-1.35-1.481-1.949-2.568l1.24-0.64
		c0.186,0.432,0.541,1.09,1.537,2.085c0.148-0.3,0.504-0.958,0.689-2.195h-4.18v-6.825h4.258v-1.873h-4.877v-1.236h11.645v1.236
		h-5.287V63.312z M222.053,64.533h-2.814v1.572h2.814V64.533z M222.035,68.843c0.018-0.133,0.018-1.142,0.018-1.596h-2.814v1.596
		H222.035z M226.326,68.843v-1.596h-2.793c0,0.94,0,1.091-0.018,1.596H226.326z M223.533,66.105h2.793v-1.572h-2.793V66.105z"/>
	<path d="M236.918,76.81h-1.48v-8.418c-1.051,2.419-2.117,3.955-3.094,5.232c-0.602-0.487-0.842-0.678-1.443-0.919
		c1.482-1.5,3.113-3.599,4.35-6.431h-3.916v-1.351h4.104v-2.867c-0.863,0.187-2.27,0.377-3.186,0.432
		c-0.379-0.731-0.414-0.823-0.75-1.313c2.021-0.055,4.572-0.354,7.518-1.537l0.898,0.974c0.133,0.132,0.17,0.227,0.17,0.322
		c0,0.132-0.115,0.204-0.229,0.204c-0.109,0-0.299-0.072-0.486-0.168c-1.123,0.45-2.285,0.75-2.455,0.787v3.167h3.523v1.351h-3.391
		c0.617,1.182,1.668,2.813,3.223,4.331c-0.469,0.358-0.768,0.658-1.088,1.05c-1.049-1.182-1.631-2.118-2.268-3.509V76.81z
		 M243.332,61.233c0.148,0.015,0.467,0.015,0.467,0.224c0,0.208-0.227,0.263-0.467,0.318v10.647h-1.541V61.12L243.332,61.233z
		 M247.586,59.771c0.168,0.019,0.414,0.055,0.414,0.241c0,0.168-0.209,0.264-0.488,0.336v13.876c0,1.854-0.244,2.699-3.752,2.568
		c-0.109-0.638-0.279-1.069-0.578-1.629c0.691,0.11,1.273,0.129,1.592,0.129c0.863,0,1.199-0.114,1.199-1.051V59.638L247.586,59.771
		z"/>
</g>
</svg>
