<?xml version="1.0" encoding="utf-8"?>
<!-- Generator: Adobe Illustrator 14.0.0, SVG Export Plug-In . SVG Version: 6.00 Build 43363)  -->
<!DOCTYPE svg PUBLIC "-//W3C//DTD SVG 1.1//EN" "http://www.w3.org/Graphics/SVG/1.1/DTD/svg11.dtd">
<svg version="1.1" id="レイヤー_1" xmlns="http://www.w3.org/2000/svg" xmlns:xlink="http://www.w3.org/1999/xlink" x="0px"
	 y="0px" width="50px" height="50px" viewBox="0 0 50 50" enable-background="new 0 0 50 50" xml:space="preserve">
<g>
	<path fill="#2F3736" d="M25,38.714c0.629,0,1.144-0.513,1.144-1.142V15.186l4.904,4.905c0.443,0.446,1.174,0.446,1.615,0
		c0.446-0.445,0.446-1.17,0-1.616l-6.857-6.857c-0.104-0.104-0.229-0.188-0.369-0.244c-0.276-0.117-0.596-0.117-0.873,0
		c-0.138,0.055-0.259,0.137-0.362,0.24c-0.003,0.002-0.006,0.002-0.01,0.004l-6.856,6.857c-0.445,0.446-0.445,1.171,0,1.616
		c0.444,0.446,1.169,0.446,1.615,0l4.907-4.905v22.386C23.856,38.201,24.37,38.714,25,38.714z"/>
</g>
</svg>
